<svg xmlns="http://www.w3.org/2000/svg" viewBox="0 0 31 60" shape-rendering="crispEdges" role="img" aria-label="hookrz"><rect x="21" y="0" width="6" height="1" fill="#439efa"/><rect x="20" y="1" width="1" height="1" fill="#439efa"/><rect x="27" y="1" width="1" height="1" fill="#439efa"/><rect x="19" y="2" width="1" height="1" fill="#439efa"/><rect x="21" y="2" width="1" height="1" fill="#818180"/><rect x="22" y="2" width="4" height="1" fill="#fdfdfd"/><rect x="26" y="2" width="1" height="1" fill="#818180"/><rect x="28" y="2" width="1" height="1" fill="#439efa"/><rect x="18" y="3" width="1" height="1" fill="#439efa"/><rect x="20" y="3" width="1" height="1" fill="#818180"/><rect x="21" y="3" width="1" height="1" fill="#b9b9b9"/><rect x="22" y="3" width="4" height="1" fill="#fdfdfd"/><rect x="26" y="3" width="1" height="1" fill="#b9b9b9"/><rect x="27" y="3" width="1" height="1" fill="#818180"/><rect x="29" y="3" width="1" height="1" fill="#439efa"/><rect x="17" y="4" width="1" height="1" fill="#439efa"/><rect x="19" y="4" width="1" height="1" fill="#818180"/><rect x="20" y="4" width="3" height="1" fill="#fdfdfd"/><rect x="23" y="4" width="2" height="1" fill="#818180"/><rect x="25" y="4" width="2" height="1" fill="#fdfdfd"/><rect x="27" y="4" width="1" height="1" fill="#b9b9b9"/><rect x="28" y="4" width="1" height="1" fill="#818180"/><rect x="30" y="4" width="1" height="1" fill="#439efa"/><rect x="17" y="5" width="1" height="1" fill="#439efa"/><rect x="19" y="5" width="3" height="1" fill="#fdfdfd"/><rect x="22" y="5" width="1" height="1" fill="#818180"/><rect x="25" y="5" width="1" height="1" fill="#818180"/><rect x="26" y="5" width="1" height="1" fill="#d9dcdd"/><rect x="27" y="5" width="1" height="1" fill="#fdfdfd"/><rect x="28" y="5" width="1" height="1" fill="#818180"/><rect x="30" y="5" width="1" height="1" fill="#439efa"/><rect x="17" y="6" width="1" height="1" fill="#439efa"/><rect x="19" y="6" width="2" height="1" fill="#fdfdfd"/><rect x="21" y="6" width="1" height="1" fill="#76c7fa"/><rect x="26" y="6" width="1" height="1" fill="#818180"/><rect x="27" y="6" width="1" height="1" fill="#76c7fa"/><rect x="28" y="6" width="1" height="1" fill="#818180"/><rect x="30" y="6" width="1" height="1" fill="#439efa"/><rect x="17" y="7" width="1" height="1" fill="#439efa"/><rect x="19" y="7" width="2" height="1" fill="#fdfdfd"/><rect x="21" y="7" width="1" height="1" fill="#d9dcdd"/><rect x="26" y="7" width="1" height="1" fill="#b9b9b9"/><rect x="27" y="7" width="1" height="1" fill="#76c7fa"/><rect x="28" y="7" width="1" height="1" fill="#818180"/><rect x="30" y="7" width="1" height="1" fill="#439efa"/><rect x="17" y="8" width="2" height="1" fill="#439efa"/><rect x="19" y="8" width="1" height="1" fill="#818180"/><rect x="20" y="8" width="1" height="1" fill="#b9b9b9"/><rect x="21" y="8" width="1" height="1" fill="#fdfdfd"/><rect x="22" y="8" width="1" height="1" fill="#d9dcdd"/><rect x="25" y="8" width="1" height="1" fill="#d9dcdd"/><rect x="26" y="8" width="1" height="1" fill="#b9b9b9"/><rect x="27" y="8" width="2" height="1" fill="#818180"/><rect x="30" y="8" width="1" height="1" fill="#439efa"/><rect x="19" y="9" width="1" height="1" fill="#439efa"/><rect x="20" y="9" width="1" height="1" fill="#818180"/><rect x="21" y="9" width="2" height="1" fill="#fdfdfd"/><rect x="23" y="9" width="2" height="1" fill="#818180"/><rect x="25" y="9" width="1" height="1" fill="#fdfdfd"/><rect x="26" y="9" width="1" height="1" fill="#b9b9b9"/><rect x="27" y="9" width="1" height="1" fill="#818180"/><rect x="30" y="9" width="1" height="1" fill="#439efa"/><rect x="20" y="10" width="1" height="1" fill="#439efa"/><rect x="21" y="10" width="1" height="1" fill="#b9b9b9"/><rect x="22" y="10" width="1" height="1" fill="#d9dcdd"/><rect x="23" y="10" width="2" height="1" fill="#fdfdfd"/><rect x="25" y="10" width="1" height="1" fill="#b9b9b9"/><rect x="26" y="10" width="1" height="1" fill="#818180"/><rect x="29" y="10" width="1" height="1" fill="#439efa"/><rect x="20" y="11" width="1" height="1" fill="#439efa"/><rect x="21" y="11" width="1" height="1" fill="#818180"/><rect x="22" y="11" width="1" height="1" fill="#b9b9b9"/><rect x="23" y="11" width="1" height="1" fill="#fdfdfd"/><rect x="24" y="11" width="1" height="1" fill="#d9dcdd"/><rect x="25" y="11" width="1" height="1" fill="#818180"/><rect x="28" y="11" width="1" height="1" fill="#439efa"/><rect x="21" y="12" width="1" height="1" fill="#439efa"/><rect x="23" y="12" width="1" height="1" fill="#fdfdfd"/><rect x="24" y="12" width="1" height="1" fill="#d9dcdd"/><rect x="25" y="12" width="1" height="1" fill="#818180"/><rect x="27" y="12" width="1" height="1" fill="#439efa"/><rect x="21" y="13" width="1" height="1" fill="#439efa"/><rect x="23" y="13" width="1" height="1" fill="#fdfdfd"/><rect x="24" y="13" width="1" height="1" fill="#b9b9b9"/><rect x="25" y="13" width="1" height="1" fill="#818180"/><rect x="27" y="13" width="1" height="1" fill="#439efa"/><rect x="21" y="14" width="1" height="1" fill="#439efa"/><rect x="23" y="14" width="1" height="1" fill="#fdfdfd"/><rect x="24" y="14" width="1" height="1" fill="#b9b9b9"/><rect x="25" y="14" width="1" height="1" fill="#818180"/><rect x="27" y="14" width="1" height="1" fill="#439efa"/><rect x="21" y="15" width="1" height="1" fill="#439efa"/><rect x="23" y="15" width="1" height="1" fill="#fdfdfd"/><rect x="24" y="15" width="1" height="1" fill="#b9b9b9"/><rect x="25" y="15" width="1" height="1" fill="#76c7fa"/><rect x="27" y="15" width="1" height="1" fill="#439efa"/><rect x="21" y="16" width="1" height="1" fill="#439efa"/><rect x="23" y="16" width="2" height="1" fill="#fdfdfd"/><rect x="25" y="16" width="1" height="1" fill="#76c7fa"/><rect x="27" y="16" width="1" height="1" fill="#439efa"/><rect x="21" y="17" width="1" height="1" fill="#439efa"/><rect x="23" y="17" width="1" height="1" fill="#fdfdfd"/><rect x="24" y="17" width="2" height="1" fill="#76c7fa"/><rect x="27" y="17" width="1" height="1" fill="#439efa"/><rect x="21" y="18" width="1" height="1" fill="#439efa"/><rect x="23" y="18" width="1" height="1" fill="#fdfdfd"/><rect x="24" y="18" width="1" height="1" fill="#76c7fa"/><rect x="25" y="18" width="1" height="1" fill="#b9b9b9"/><rect x="27" y="18" width="1" height="1" fill="#439efa"/><rect x="21" y="19" width="1" height="1" fill="#439efa"/><rect x="23" y="19" width="1" height="1" fill="#fdfdfd"/><rect x="24" y="19" width="1" height="1" fill="#76c7fa"/><rect x="25" y="19" width="1" height="1" fill="#b9b9b9"/><rect x="27" y="19" width="1" height="1" fill="#439efa"/><rect x="21" y="20" width="1" height="1" fill="#439efa"/><rect x="23" y="20" width="1" height="1" fill="#fdfdfd"/><rect x="24" y="20" width="1" height="1" fill="#76c7fa"/><rect x="25" y="20" width="1" height="1" fill="#b9b9b9"/><rect x="27" y="20" width="1" height="1" fill="#439efa"/><rect x="21" y="21" width="1" height="1" fill="#439efa"/><rect x="23" y="21" width="1" height="1" fill="#fdfdfd"/><rect x="24" y="21" width="1" height="1" fill="#76c7fa"/><rect x="25" y="21" width="1" height="1" fill="#b9b9b9"/><rect x="27" y="21" width="1" height="1" fill="#439efa"/><rect x="21" y="22" width="1" height="1" fill="#439efa"/><rect x="23" y="22" width="1" height="1" fill="#fdfdfd"/><rect x="24" y="22" width="1" height="1" fill="#76c7fa"/><rect x="25" y="22" width="1" height="1" fill="#b9b9b9"/><rect x="27" y="22" width="1" height="1" fill="#439efa"/><rect x="21" y="23" width="1" height="1" fill="#439efa"/><rect x="23" y="23" width="2" height="1" fill="#fdfdfd"/><rect x="25" y="23" width="1" height="1" fill="#818180"/><rect x="27" y="23" width="1" height="1" fill="#439efa"/><rect x="21" y="24" width="1" height="1" fill="#439efa"/><rect x="23" y="24" width="2" height="1" fill="#fdfdfd"/><rect x="25" y="24" width="1" height="1" fill="#818180"/><rect x="27" y="24" width="1" height="1" fill="#439efa"/><rect x="21" y="25" width="1" height="1" fill="#439efa"/><rect x="23" y="25" width="2" height="1" fill="#fdfdfd"/><rect x="25" y="25" width="1" height="1" fill="#818180"/><rect x="27" y="25" width="1" height="1" fill="#439efa"/><rect x="21" y="26" width="1" height="1" fill="#439efa"/><rect x="23" y="26" width="2" height="1" fill="#fdfdfd"/><rect x="25" y="26" width="1" height="1" fill="#818180"/><rect x="27" y="26" width="1" height="1" fill="#439efa"/><rect x="21" y="27" width="1" height="1" fill="#439efa"/><rect x="23" y="27" width="2" height="1" fill="#fdfdfd"/><rect x="25" y="27" width="1" height="1" fill="#818180"/><rect x="27" y="27" width="1" height="1" fill="#439efa"/><rect x="21" y="28" width="1" height="1" fill="#439efa"/><rect x="23" y="28" width="1" height="1" fill="#fdfdfd"/><rect x="24" y="28" width="1" height="1" fill="#b9b9b9"/><rect x="25" y="28" width="1" height="1" fill="#818180"/><rect x="27" y="28" width="1" height="1" fill="#439efa"/><rect x="9" y="29" width="1" height="1" fill="#439efa"/><rect x="21" y="29" width="1" height="1" fill="#439efa"/><rect x="23" y="29" width="1" height="1" fill="#fdfdfd"/><rect x="24" y="29" width="1" height="1" fill="#b9b9b9"/><rect x="25" y="29" width="1" height="1" fill="#818180"/><rect x="27" y="29" width="1" height="1" fill="#439efa"/><rect x="8" y="30" width="2" height="1" fill="#439efa"/><rect x="21" y="30" width="1" height="1" fill="#439efa"/><rect x="23" y="30" width="1" height="1" fill="#fdfdfd"/><rect x="24" y="30" width="1" height="1" fill="#b9b9b9"/><rect x="25" y="30" width="1" height="1" fill="#818180"/><rect x="27" y="30" width="1" height="1" fill="#439efa"/><rect x="7" y="31" width="1" height="1" fill="#439efa"/><rect x="9" y="31" width="1" height="1" fill="#439efa"/><rect x="21" y="31" width="1" height="1" fill="#439efa"/><rect x="23" y="31" width="1" height="1" fill="#fdfdfd"/><rect x="24" y="31" width="1" height="1" fill="#b9b9b9"/><rect x="25" y="31" width="1" height="1" fill="#818180"/><rect x="27" y="31" width="1" height="1" fill="#439efa"/><rect x="6" y="32" width="1" height="1" fill="#439efa"/><rect x="9" y="32" width="1" height="1" fill="#439efa"/><rect x="21" y="32" width="1" height="1" fill="#439efa"/><rect x="23" y="32" width="1" height="1" fill="#fdfdfd"/><rect x="24" y="32" width="1" height="1" fill="#b9b9b9"/><rect x="25" y="32" width="1" height="1" fill="#818180"/><rect x="27" y="32" width="1" height="1" fill="#439efa"/><rect x="5" y="33" width="1" height="1" fill="#439efa"/><rect x="7" y="33" width="1" height="1" fill="#fdfdfd"/><rect x="9" y="33" width="1" height="1" fill="#439efa"/><rect x="21" y="33" width="1" height="1" fill="#439efa"/><rect x="23" y="33" width="1" height="1" fill="#fdfdfd"/><rect x="24" y="33" width="1" height="1" fill="#b9b9b9"/><rect x="25" y="33" width="1" height="1" fill="#818180"/><rect x="27" y="33" width="1" height="1" fill="#439efa"/><rect x="4" y="34" width="1" height="1" fill="#439efa"/><rect x="6" y="34" width="2" height="1" fill="#fdfdfd"/><rect x="9" y="34" width="1" height="1" fill="#439efa"/><rect x="21" y="34" width="1" height="1" fill="#439efa"/><rect x="23" y="34" width="1" height="1" fill="#fdfdfd"/><rect x="24" y="34" width="1" height="1" fill="#b9b9b9"/><rect x="25" y="34" width="1" height="1" fill="#818180"/><rect x="27" y="34" width="1" height="1" fill="#439efa"/><rect x="3" y="35" width="1" height="1" fill="#439efa"/><rect x="5" y="35" width="3" height="1" fill="#fdfdfd"/><rect x="9" y="35" width="1" height="1" fill="#439efa"/><rect x="21" y="35" width="1" height="1" fill="#439efa"/><rect x="23" y="35" width="1" height="1" fill="#fdfdfd"/><rect x="24" y="35" width="1" height="1" fill="#b9b9b9"/><rect x="25" y="35" width="1" height="1" fill="#818180"/><rect x="27" y="35" width="1" height="1" fill="#439efa"/><rect x="2" y="36" width="1" height="1" fill="#439efa"/><rect x="4" y="36" width="1" height="1" fill="#b9b9b9"/><rect x="5" y="36" width="2" height="1" fill="#fdfdfd"/><rect x="7" y="36" width="1" height="1" fill="#76c7fa"/><rect x="8" y="36" width="1" height="1" fill="#b9b9b9"/><rect x="10" y="36" width="1" height="1" fill="#439efa"/><rect x="21" y="36" width="1" height="1" fill="#439efa"/><rect x="23" y="36" width="1" height="1" fill="#fdfdfd"/><rect x="24" y="36" width="1" height="1" fill="#b9b9b9"/><rect x="25" y="36" width="1" height="1" fill="#818180"/><rect x="27" y="36" width="1" height="1" fill="#439efa"/><rect x="2" y="37" width="1" height="1" fill="#439efa"/><rect x="4" y="37" width="2" height="1" fill="#fdfdfd"/><rect x="6" y="37" width="2" height="1" fill="#76c7fa"/><rect x="8" y="37" width="1" height="1" fill="#fdfdfd"/><rect x="10" y="37" width="1" height="1" fill="#439efa"/><rect x="21" y="37" width="1" height="1" fill="#439efa"/><rect x="23" y="37" width="1" height="1" fill="#fdfdfd"/><rect x="24" y="37" width="1" height="1" fill="#b9b9b9"/><rect x="25" y="37" width="2" height="1" fill="#818180"/><rect x="28" y="37" width="1" height="1" fill="#439efa"/><rect x="1" y="38" width="1" height="1" fill="#439efa"/><rect x="3" y="38" width="1" height="1" fill="#b9b9b9"/><rect x="4" y="38" width="2" height="1" fill="#fdfdfd"/><rect x="6" y="38" width="1" height="1" fill="#76c7fa"/><rect x="7" y="38" width="1" height="1" fill="#b9b9b9"/><rect x="8" y="38" width="1" height="1" fill="#fdfdfd"/><rect x="10" y="38" width="1" height="1" fill="#439efa"/><rect x="21" y="38" width="1" height="1" fill="#439efa"/><rect x="23" y="38" width="2" height="1" fill="#fdfdfd"/><rect x="25" y="38" width="1" height="1" fill="#b9b9b9"/><rect x="26" y="38" width="1" height="1" fill="#818180"/><rect x="28" y="38" width="1" height="1" fill="#439efa"/><rect x="1" y="39" width="1" height="1" fill="#439efa"/><rect x="3" y="39" width="2" height="1" fill="#fdfdfd"/><rect x="5" y="39" width="2" height="1" fill="#76c7fa"/><rect x="8" y="39" width="1" height="1" fill="#b9b9b9"/><rect x="9" y="39" width="1" height="1" fill="#fdfdfd"/><rect x="11" y="39" width="1" height="1" fill="#439efa"/><rect x="22" y="39" width="1" height="1" fill="#439efa"/><rect x="24" y="39" width="1" height="1" fill="#fdfdfd"/><rect x="25" y="39" width="1" height="1" fill="#b9b9b9"/><rect x="26" y="39" width="1" height="1" fill="#818180"/><rect x="28" y="39" width="1" height="1" fill="#439efa"/><rect x="1" y="40" width="1" height="1" fill="#439efa"/><rect x="3" y="40" width="2" height="1" fill="#fdfdfd"/><rect x="5" y="40" width="1" height="1" fill="#76c7fa"/><rect x="6" y="40" width="1" height="1" fill="#b9b9b9"/><rect x="9" y="40" width="1" height="1" fill="#b9b9b9"/><rect x="10" y="40" width="2" height="1" fill="#439efa"/><rect x="22" y="40" width="1" height="1" fill="#439efa"/><rect x="24" y="40" width="1" height="1" fill="#fdfdfd"/><rect x="25" y="40" width="1" height="1" fill="#b9b9b9"/><rect x="26" y="40" width="1" height="1" fill="#818180"/><rect x="28" y="40" width="1" height="1" fill="#439efa"/><rect x="0" y="41" width="1" height="1" fill="#439efa"/><rect x="2" y="41" width="3" height="1" fill="#fdfdfd"/><rect x="5" y="41" width="1" height="1" fill="#76c7fa"/><rect x="6" y="41" width="1" height="1" fill="#818180"/><rect x="8" y="41" width="2" height="1" fill="#439efa"/><rect x="11" y="41" width="1" height="1" fill="#439efa"/><rect x="22" y="41" width="1" height="1" fill="#439efa"/><rect x="24" y="41" width="2" height="1" fill="#fdfdfd"/><rect x="26" y="41" width="2" height="1" fill="#818180"/><rect x="29" y="41" width="1" height="1" fill="#439efa"/><rect x="0" y="42" width="1" height="1" fill="#439efa"/><rect x="2" y="42" width="3" height="1" fill="#fdfdfd"/><rect x="5" y="42" width="1" height="1" fill="#b9b9b9"/><rect x="7" y="42" width="1" height="1" fill="#439efa"/><rect x="10" y="42" width="1" height="1" fill="#439efa"/><rect x="12" y="42" width="1" height="1" fill="#439efa"/><rect x="22" y="42" width="1" height="1" fill="#439efa"/><rect x="24" y="42" width="2" height="1" fill="#fdfdfd"/><rect x="26" y="42" width="1" height="1" fill="#b9b9b9"/><rect x="27" y="42" width="1" height="1" fill="#818180"/><rect x="29" y="42" width="1" height="1" fill="#439efa"/><rect x="0" y="43" width="1" height="1" fill="#439efa"/><rect x="2" y="43" width="3" height="1" fill="#fdfdfd"/><rect x="5" y="43" width="1" height="1" fill="#76c7fa"/><rect x="7" y="43" width="1" height="1" fill="#439efa"/><rect x="11" y="43" width="2" height="1" fill="#439efa"/><rect x="22" y="43" width="1" height="1" fill="#439efa"/><rect x="24" y="43" width="2" height="1" fill="#fdfdfd"/><rect x="26" y="43" width="1" height="1" fill="#b9b9b9"/><rect x="27" y="43" width="1" height="1" fill="#818180"/><rect x="29" y="43" width="1" height="1" fill="#439efa"/><rect x="0" y="44" width="1" height="1" fill="#439efa"/><rect x="2" y="44" width="2" height="1" fill="#fdfdfd"/><rect x="4" y="44" width="1" height="1" fill="#b9b9b9"/><rect x="5" y="44" width="1" height="1" fill="#818180"/><rect x="7" y="44" width="1" height="1" fill="#439efa"/><rect x="22" y="44" width="1" height="1" fill="#439efa"/><rect x="24" y="44" width="2" height="1" fill="#fdfdfd"/><rect x="26" y="44" width="1" height="1" fill="#b9b9b9"/><rect x="27" y="44" width="1" height="1" fill="#818180"/><rect x="29" y="44" width="1" height="1" fill="#439efa"/><rect x="0" y="45" width="1" height="1" fill="#439efa"/><rect x="2" y="45" width="2" height="1" fill="#fdfdfd"/><rect x="4" y="45" width="1" height="1" fill="#b9b9b9"/><rect x="5" y="45" width="1" height="1" fill="#818180"/><rect x="7" y="45" width="1" height="1" fill="#439efa"/><rect x="22" y="45" width="1" height="1" fill="#439efa"/><rect x="24" y="45" width="2" height="1" fill="#fdfdfd"/><rect x="26" y="45" width="1" height="1" fill="#b9b9b9"/><rect x="27" y="45" width="1" height="1" fill="#818180"/><rect x="29" y="45" width="1" height="1" fill="#439efa"/><rect x="0" y="46" width="1" height="1" fill="#439efa"/><rect x="2" y="46" width="1" height="1" fill="#b9b9b9"/><rect x="3" y="46" width="1" height="1" fill="#fdfdfd"/><rect x="4" y="46" width="2" height="1" fill="#b9b9b9"/><rect x="7" y="46" width="1" height="1" fill="#439efa"/><rect x="21" y="46" width="1" height="1" fill="#439efa"/><rect x="23" y="46" width="2" height="1" fill="#fdfdfd"/><rect x="25" y="46" width="1" height="1" fill="#d9dcdd"/><rect x="26" y="46" width="1" height="1" fill="#b9b9b9"/><rect x="27" y="46" width="1" height="1" fill="#818180"/><rect x="29" y="46" width="1" height="1" fill="#439efa"/><rect x="0" y="47" width="1" height="1" fill="#439efa"/><rect x="2" y="47" width="1" height="1" fill="#818180"/><rect x="3" y="47" width="1" height="1" fill="#d9dcdd"/><rect x="4" y="47" width="3" height="1" fill="#b9b9b9"/><rect x="8" y="47" width="1" height="1" fill="#439efa"/><rect x="21" y="47" width="1" height="1" fill="#439efa"/><rect x="23" y="47" width="2" height="1" fill="#fdfdfd"/><rect x="25" y="47" width="1" height="1" fill="#d9dcdd"/><rect x="26" y="47" width="1" height="1" fill="#b9b9b9"/><rect x="27" y="47" width="1" height="1" fill="#818180"/><rect x="29" y="47" width="1" height="1" fill="#439efa"/><rect x="0" y="48" width="1" height="1" fill="#439efa"/><rect x="2" y="48" width="1" height="1" fill="#818180"/><rect x="3" y="48" width="2" height="1" fill="#b9b9b9"/><rect x="5" y="48" width="2" height="1" fill="#fdfdfd"/><rect x="8" y="48" width="1" height="1" fill="#439efa"/><rect x="20" y="48" width="1" height="1" fill="#439efa"/><rect x="22" y="48" width="3" height="1" fill="#fdfdfd"/><rect x="25" y="48" width="1" height="1" fill="#b9b9b9"/><rect x="26" y="48" width="2" height="1" fill="#818180"/><rect x="29" y="48" width="1" height="1" fill="#439efa"/><rect x="1" y="49" width="1" height="1" fill="#439efa"/><rect x="3" y="49" width="1" height="1" fill="#818180"/><rect x="4" y="49" width="2" height="1" fill="#b9b9b9"/><rect x="6" y="49" width="2" height="1" fill="#fdfdfd"/><rect x="9" y="49" width="1" height="1" fill="#439efa"/><rect x="19" y="49" width="1" height="1" fill="#439efa"/><rect x="21" y="49" width="1" height="1" fill="#b9b9b9"/><rect x="22" y="49" width="2" height="1" fill="#fdfdfd"/><rect x="24" y="49" width="1" height="1" fill="#d9dcdd"/><rect x="25" y="49" width="1" height="1" fill="#b9b9b9"/><rect x="26" y="49" width="1" height="1" fill="#818180"/><rect x="29" y="49" width="1" height="1" fill="#439efa"/><rect x="1" y="50" width="1" height="1" fill="#439efa"/><rect x="4" y="50" width="2" height="1" fill="#b9b9b9"/><rect x="6" y="50" width="3" height="1" fill="#fdfdfd"/><rect x="10" y="50" width="2" height="1" fill="#439efa"/><rect x="17" y="50" width="2" height="1" fill="#439efa"/><rect x="20" y="50" width="1" height="1" fill="#d9dcdd"/><rect x="21" y="50" width="3" height="1" fill="#fdfdfd"/><rect x="24" y="50" width="1" height="1" fill="#b9b9b9"/><rect x="25" y="50" width="1" height="1" fill="#818180"/><rect x="28" y="50" width="1" height="1" fill="#439efa"/><rect x="1" y="51" width="1" height="1" fill="#439efa"/><rect x="4" y="51" width="1" height="1" fill="#818180"/><rect x="5" y="51" width="2" height="1" fill="#b9b9b9"/><rect x="7" y="51" width="3" height="1" fill="#fdfdfd"/><rect x="12" y="51" width="5" height="1" fill="#439efa"/><rect x="19" y="51" width="4" height="1" fill="#fdfdfd"/><rect x="23" y="51" width="1" height="1" fill="#76c7fa"/><rect x="24" y="51" width="1" height="1" fill="#b9b9b9"/><rect x="25" y="51" width="1" height="1" fill="#818180"/><rect x="28" y="51" width="1" height="1" fill="#439efa"/><rect x="2" y="52" width="1" height="1" fill="#439efa"/><rect x="5" y="52" width="1" height="1" fill="#818180"/><rect x="6" y="52" width="2" height="1" fill="#b9b9b9"/><rect x="8" y="52" width="4" height="1" fill="#fdfdfd"/><rect x="17" y="52" width="5" height="1" fill="#fdfdfd"/><rect x="22" y="52" width="2" height="1" fill="#76c7fa"/><rect x="24" y="52" width="1" height="1" fill="#818180"/><rect x="27" y="52" width="1" height="1" fill="#439efa"/><rect x="2" y="53" width="1" height="1" fill="#439efa"/><rect x="6" y="53" width="1" height="1" fill="#818180"/><rect x="7" y="53" width="2" height="1" fill="#b9b9b9"/><rect x="9" y="53" width="11" height="1" fill="#fdfdfd"/><rect x="20" y="53" width="3" height="1" fill="#76c7fa"/><rect x="23" y="53" width="1" height="1" fill="#818180"/><rect x="27" y="53" width="1" height="1" fill="#439efa"/><rect x="3" y="54" width="1" height="1" fill="#439efa"/><rect x="7" y="54" width="1" height="1" fill="#818180"/><rect x="8" y="54" width="2" height="1" fill="#b9b9b9"/><rect x="10" y="54" width="8" height="1" fill="#fdfdfd"/><rect x="18" y="54" width="4" height="1" fill="#76c7fa"/><rect x="22" y="54" width="1" height="1" fill="#818180"/><rect x="26" y="54" width="1" height="1" fill="#439efa"/><rect x="4" y="55" width="1" height="1" fill="#439efa"/><rect x="8" y="55" width="1" height="1" fill="#818180"/><rect x="9" y="55" width="3" height="1" fill="#b9b9b9"/><rect x="12" y="55" width="4" height="1" fill="#fdfdfd"/><rect x="16" y="55" width="4" height="1" fill="#76c7fa"/><rect x="20" y="55" width="2" height="1" fill="#818180"/><rect x="25" y="55" width="1" height="1" fill="#439efa"/><rect x="5" y="56" width="1" height="1" fill="#439efa"/><rect x="10" y="56" width="1" height="1" fill="#818180"/><rect x="11" y="56" width="7" height="1" fill="#b9b9b9"/><rect x="18" y="56" width="2" height="1" fill="#818180"/><rect x="24" y="56" width="1" height="1" fill="#439efa"/><rect x="6" y="57" width="1" height="1" fill="#439efa"/><rect x="11" y="57" width="8" height="1" fill="#818180"/><rect x="23" y="57" width="1" height="1" fill="#439efa"/><rect x="7" y="58" width="4" height="1" fill="#439efa"/><rect x="19" y="58" width="4" height="1" fill="#439efa"/><rect x="11" y="59" width="8" height="1" fill="#439efa"/></svg>